HIERARCHY
ROOT CG
{
	OFFSET 0.000000 0.000000 27.772259
	CHANNELS 6 Xposition Yposition Zposition Xrotation Yrotation Zrotation
	JOINT Pelvis
	{
		OFFSET 0.000000 0.000000 0.000000
		CHANNELS 3 Xrotation Yrotation Zrotation
		JOINT Spine
		{
			OFFSET -0.000017 -10.490843 -0.495483
			CHANNELS 3 Xrotation Yrotation Zrotation
			JOINT Spine1
			{
				OFFSET -0.000010 -22.678980 0.018061
				CHANNELS 3 Xrotation Yrotation Zrotation
				JOINT Spine2
				{
					OFFSET -0.000010 -22.678967 0.018061
					CHANNELS 3 Xrotation Yrotation Zrotation
					JOINT Spine3
					{
						OFFSET -0.000010 -22.678982 0.018059
						CHANNELS 3 Xrotation Yrotation Zrotation
						JOINT Neck
						{
							OFFSET -0.000012 -22.678986 -1.289251
							CHANNELS 3 Xrotation Yrotation Zrotation
							JOINT Neck1
							{
								OFFSET -0.000007 -16.255905 0.012947
								CHANNELS 3 Xrotation Yrotation Zrotation
								JOINT Head
								{
									OFFSET -0.000005 -10.784607 -0.287502
									CHANNELS 3 Xrotation Yrotation Zrotation
									JOINT Jaw01
									{
										OFFSET 0.000031 7.782959 5.073944
										CHANNELS 3 Xrotation Yrotation Zrotation
										JOINT Jaw02
										{
											OFFSET 0.000004 -34.927139 -18.883980
											CHANNELS 3 Xrotation Yrotation Zrotation
											End Site
											{
												OFFSET -0.000170 8.372803 -38.812450
											}
										}
									}
									JOINT Nose
									{
										OFFSET -0.000002 -25.700912 7.222265
										CHANNELS 3 Xrotation Yrotation Zrotation
										End Site
										{
											OFFSET -0.000090 0.641281 -21.715439
										}
									}
									JOINT L_EyeSocket
									{
										OFFSET 7.352326 -19.832718 14.164183
										CHANNELS 3 Xrotation Yrotation Zrotation
										JOINT L_Eye
										{
											OFFSET -0.000868 -0.001053 0.016003
											CHANNELS 3 Xrotation Yrotation Zrotation
											End Site
											{
												OFFSET -0.001505 -0.001846 0.027969
											}
										}
										JOINT L_Eyelid_Top
										{
											OFFSET -0.001004 -0.002625 0.032516
											CHANNELS 3 Xrotation Yrotation Zrotation
											End Site
											{
												OFFSET -0.013218 0.005753 0.024086
											}
										}
										JOINT L_Eyelid_Bottom
										{
											OFFSET -0.001194 -0.002777 0.035381
											CHANNELS 3 Xrotation Yrotation Zrotation
											End Site
											{
												OFFSET -0.010032 0.008636 -0.024754
											}
										}
									}
									JOINT R_EyeSocket
									{
										OFFSET -7.352252 -19.832748 14.164206
										CHANNELS 3 Xrotation Yrotation Zrotation
										JOINT R_Eye
										{
											OFFSET 0.000875 -0.001068 0.015991
											CHANNELS 3 Xrotation Yrotation Zrotation
											End Site
											{
												OFFSET 0.001505 -0.001846 0.027962
											}
										}
										JOINT R_Eyelid_Top
										{
											OFFSET 0.001021 -0.002625 0.032516
											CHANNELS 3 Xrotation Yrotation Zrotation
											End Site
											{
												OFFSET 0.013214 0.005753 0.024078
											}
										}
										JOINT R_Eyelid_Bottom
										{
											OFFSET 0.001170 -0.002762 0.035366
											CHANNELS 3 Xrotation Yrotation Zrotation
											End Site
											{
												OFFSET 0.010029 0.008636 -0.024746
											}
										}
									}
								}
								JOINT Neck_Fat
								{
									OFFSET 0.000044 -9.595100 -17.491512
									CHANNELS 3 Xrotation Yrotation Zrotation
									End Site
									{
										OFFSET -0.000036 15.369423 -0.000007
									}
								}
							}
						}
						JOINT L_Clavicle
						{
							OFFSET 4.567107 -11.666092 -3.750029
							CHANNELS 3 Xrotation Yrotation Zrotation
							JOINT L_UpperArm
							{
								OFFSET 20.725666 -0.000053 -0.000032
								CHANNELS 3 Xrotation Yrotation Zrotation
								JOINT L_Forearm
								{
									OFFSET 5.265112 -0.585754 -20.155697
									CHANNELS 3 Xrotation Yrotation Zrotation
									JOINT L_Hand
									{
										OFFSET 2.653017 -10.877708 -16.383667
										CHANNELS 3 Xrotation Yrotation Zrotation
										JOINT L_Finger0
										{
											OFFSET -4.206146 -4.328911 -5.034346
											CHANNELS 3 Xrotation Yrotation Zrotation
											JOINT L_Finger01
											{
												OFFSET 0.084272 -1.788536 -4.181065
												CHANNELS 3 Xrotation Yrotation Zrotation
												End Site
												{
													OFFSET 3.261885 3.094673 -0.685818
												}
											}
										}
										JOINT L_Finger1
										{
											OFFSET -1.039112 -6.775742 -3.499998
											CHANNELS 3 Xrotation Yrotation Zrotation
											JOINT L_Finger11
											{
												OFFSET 1.320335 -3.040672 -6.425793
												CHANNELS 3 Xrotation Yrotation Zrotation
												End Site
												{
													OFFSET -1.244579 6.832077 -2.013330
												}
											}
										}
										JOINT L_Finger2
										{
											OFFSET 2.531296 -5.656487 -3.286415
											CHANNELS 3 Xrotation Yrotation Zrotation
											JOINT L_Finger21
											{
												OFFSET 1.991665 -2.402016 -5.957748
												CHANNELS 3 Xrotation Yrotation Zrotation
												End Site
												{
													OFFSET -2.793068 5.800873 -1.944178
												}
											}
										}
										JOINT L_Finger3
										{
											OFFSET 5.474075 -3.302338 -2.655975
											CHANNELS 3 Xrotation Yrotation Zrotation
											JOINT L_Finger31
											{
												OFFSET 2.026943 -1.267532 -5.961166
												CHANNELS 3 Xrotation Yrotation Zrotation
												End Site
												{
													OFFSET -4.375172 4.343658 -1.800320
												}
											}
										}
										JOINT L_Finger4
										{
											OFFSET 4.825745 1.085899 -2.321970
											CHANNELS 3 Xrotation Yrotation Zrotation
											JOINT L_Finger41
											{
												OFFSET 3.358261 -1.829651 -3.744434
												CHANNELS 3 Xrotation Yrotation Zrotation
												End Site
												{
													OFFSET -3.843296 2.955200 -2.267633
												}
											}
										}
									}
								}
							}
						}
						JOINT R_Clavicle
						{
							OFFSET -4.567111 -11.666092 -3.750036
							CHANNELS 3 Xrotation Yrotation Zrotation
							JOINT R_UpperArm
							{
								OFFSET -20.725670 -0.000031 0.000038
								CHANNELS 3 Xrotation Yrotation Zrotation
								JOINT R_Forearm
								{
									OFFSET -5.265285 -0.585762 -20.155655
									CHANNELS 3 Xrotation Yrotation Zrotation
									JOINT R_Hand
									{
										OFFSET -2.653147 -10.877739 -16.383663
										CHANNELS 3 Xrotation Yrotation Zrotation
										JOINT R_Finger0
										{
											OFFSET 4.206116 -4.328888 -5.034388
											CHANNELS 3 Xrotation Yrotation Zrotation
											JOINT R_Finger01
											{
												OFFSET -0.084324 -1.788544 -4.181051
												CHANNELS 3 Xrotation Yrotation Zrotation
												End Site
												{
													OFFSET -3.261890 3.094666 -0.685791
												}
											}
										}
										JOINT R_Finger1
										{
											OFFSET 1.039101 -6.775711 -3.499994
											CHANNELS 3 Xrotation Yrotation Zrotation
											JOINT R_Finger11
											{
												OFFSET -1.320374 -3.040672 -6.425779
												CHANNELS 3 Xrotation Yrotation Zrotation
												End Site
												{
													OFFSET 1.244556 6.832077 -2.013342
												}
											}
										}
										JOINT R_Finger2
										{
											OFFSET -2.531307 -5.656464 -3.286409
											CHANNELS 3 Xrotation Yrotation Zrotation
											JOINT R_Finger21
											{
												OFFSET -1.991707 -2.402016 -5.957708
												CHANNELS 3 Xrotation Yrotation Zrotation
												End Site
												{
													OFFSET 2.793037 5.800858 -1.944197
												}
											}
										}
										JOINT R_Finger3
										{
											OFFSET -5.474091 -3.302330 -2.655947
											CHANNELS 3 Xrotation Yrotation Zrotation
											JOINT R_Finger31
											{
												OFFSET -2.026993 -1.267532 -5.961157
												CHANNELS 3 Xrotation Yrotation Zrotation
												End Site
												{
													OFFSET 4.375156 4.343674 -1.800358
												}
											}
										}
										JOINT R_Finger4
										{
											OFFSET -4.825756 1.085922 -2.321926
											CHANNELS 3 Xrotation Yrotation Zrotation
											JOINT R_Finger41
											{
												OFFSET -3.358307 -1.829651 -3.744390
												CHANNELS 3 Xrotation Yrotation Zrotation
												End Site
												{
													OFFSET 3.843273 2.955208 -2.267666
												}
											}
										}
									}
								}
							}
						}
					}
				}
			}
		}
		JOINT Tail01
		{
			OFFSET -0.000010 10.922326 -0.017508
			CHANNELS 3 Xrotation Yrotation Zrotation
			JOINT Tail02
			{
				OFFSET -0.000022 21.986111 0.000013
				CHANNELS 3 Xrotation Yrotation Zrotation
				JOINT Tail03
				{
					OFFSET -0.000022 21.986118 0.000002
					CHANNELS 3 Xrotation Yrotation Zrotation
					JOINT Tail04
					{
						OFFSET -0.000022 21.986122 0.000004
						CHANNELS 3 Xrotation Yrotation Zrotation
						JOINT Tail05
						{
							OFFSET -0.000022 21.986099 0.000010
							CHANNELS 3 Xrotation Yrotation Zrotation
							JOINT Tail06
							{
								OFFSET -0.000022 21.986099 0.000006
								CHANNELS 3 Xrotation Yrotation Zrotation
								JOINT Tail07
								{
									OFFSET -0.000022 21.986099 0.000000
									CHANNELS 3 Xrotation Yrotation Zrotation
									JOINT Tail08
									{
										OFFSET -0.000022 21.984848 0.000050
										CHANNELS 3 Xrotation Yrotation Zrotation
										JOINT Tail09
										{
											OFFSET -0.000025 21.926025 -1.606211
											CHANNELS 3 Xrotation Yrotation Zrotation
											JOINT Tail10
											{
												OFFSET -0.000027 21.750092 -3.203882
												CHANNELS 3 Xrotation Yrotation Zrotation
												End Site
												{
													OFFSET -0.000036 4.767395 21.461668
												}
											}
										}
									}
								}
							}
						}
					}
				}
			}
		}
		JOINT L_Thigh
		{
			OFFSET 24.788780 0.000021 -0.000034
			CHANNELS 3 Xrotation Yrotation Zrotation
			JOINT L_Calf
			{
				OFFSET 4.720837 4.161326 -21.049969
				CHANNELS 3 Xrotation Yrotation Zrotation
				JOINT L_Foot
				{
					OFFSET 2.154160 21.114433 -11.949743
					CHANNELS 3 Xrotation Yrotation Zrotation
					JOINT L_Toe0
					{
						OFFSET 4.557564 9.251841 -8.735286
						CHANNELS 3 Xrotation Yrotation Zrotation
						End Site
						{
							OFFSET 4.555542 -12.646044 1.018752
						}
					}
					JOINT L_Toe1
					{
						OFFSET 2.346291 5.845602 -11.687160
						CHANNELS 3 Xrotation Yrotation Zrotation
						End Site
						{
							OFFSET 5.347954 -12.298279 1.365644
						}
					}
					JOINT L_Toe2
					{
						OFFSET -0.356020 3.902458 -12.541145
						CHANNELS 3 Xrotation Yrotation Zrotation
						End Site
						{
							OFFSET 3.916235 -12.806129 1.542549
						}
					}
					JOINT L_Toe3
					{
						OFFSET -4.603447 3.183935 -12.435249
						CHANNELS 3 Xrotation Yrotation Zrotation
						End Site
						{
							OFFSET 3.810858 -12.587427 2.957583
						}
					}
					JOINT L_Toe4
					{
						OFFSET -7.144358 6.231495 -10.072764
						CHANNELS 3 Xrotation Yrotation Zrotation
						End Site
						{
							OFFSET 3.810858 -12.587425 2.957585
						}
					}
				}
			}
		}
		JOINT R_Thigh
		{
			OFFSET -24.788780 -0.000024 0.000034
			CHANNELS 3 Xrotation Yrotation Zrotation
			JOINT R_Calf
			{
				OFFSET -4.720922 4.161324 -21.049952
				CHANNELS 3 Xrotation Yrotation Zrotation
				JOINT R_Foot
				{
					OFFSET -2.154238 21.114414 -11.949730
					CHANNELS 3 Xrotation Yrotation Zrotation
					JOINT R_Toe0
					{
						OFFSET -4.557598 9.251823 -8.735270
						CHANNELS 3 Xrotation Yrotation Zrotation
						End Site
						{
							OFFSET -4.555508 -12.646051 1.018756
						}
					}
					JOINT R_Toe1
					{
						OFFSET -2.346325 5.845589 -11.687157
						CHANNELS 3 Xrotation Yrotation Zrotation
						End Site
						{
							OFFSET -5.347919 -12.298286 1.365654
						}
					}
					JOINT R_Toe2
					{
						OFFSET 0.355980 3.902462 -12.541145
						CHANNELS 3 Xrotation Yrotation Zrotation
						End Site
						{
							OFFSET -3.916199 -12.806131 1.542559
						}
					}
					JOINT R_Toe3
					{
						OFFSET 4.603411 3.183941 -12.435266
						CHANNELS 3 Xrotation Yrotation Zrotation
						End Site
						{
							OFFSET -3.810825 -12.587429 2.957591
						}
					}
					JOINT R_Toe4
					{
						OFFSET 7.144323 6.231503 -10.072779
						CHANNELS 3 Xrotation Yrotation Zrotation
						End Site
						{
							OFFSET -3.810825 -12.587433 2.957584
						}
					}
				}
			}
		}
	}
}
MOTION
Frames: 4
Frame Time: 0.033333
0.000001 9.014972 23.630997 -7.236684 -22.067660 -1.555808 -11.364279 -30.948636 -2.359401 -4.403192 -14.609952 -13.519096 -9.217759 -7.944877 -5.951386 -1.922009 -7.048931 -6.243474 -6.506185 -7.048088 -4.865947 -4.552010 -1.052470 -11.593656 -11.258515 -4.361453 -10.505119 10.547269 -2.275718 -1.812648 -6.375315 16.739687 3.636487 0.000005 -0.000001 0.000002 0.005961 0.000002 0.000000 -0.000008 0.000007 -0.000015 0.000085 -0.000058 0.000015 17.927522 27.853252 -1.632754 -24.209927 -31.916323 -10.474864 -0.000002 0.000001 -0.000000 0.000089 0.000054 -0.000010 17.923852 -27.856080 1.637906 -24.217165 31.911265 10.474386 0.000001 0.000000 0.000001 0.005954 9.640979 31.705216 30.847593 14.282141 -39.516828 -4.488885 0.749274 -1.166221 -8.980970 14.963367 17.873876 47.517688 0.440339 -36.799259 11.122746 -9.683689 5.539459 28.278482 22.936988 -17.447061 14.959567 3.360238 1.137009 23.469433 6.884983 -9.032904 13.536037 7.226675 0.827021 16.988878 5.689673 -7.739086 10.578127 11.195126 0.189373 18.369408 24.633070 33.079340 8.667557 12.674588 0.701316 -0.003953 -9.669265 -31.804622 -134.313197 65.530501 175.371459 -3.322665 -0.545631 0.868580 -9.202503 -14.904675 -17.978465 47.617671 -0.568000 36.837191 10.989684 9.580168 -5.465390 28.220856 -22.960075 17.410024 14.789771 -3.320631 -1.129198 23.391559 -6.852622 9.028777 13.381867 -7.143861 -0.827370 16.928014 -5.627181 7.756274 10.456293 -11.068117 -0.199109 18.416024 -24.493110 -33.055462 8.567999 -12.530301 -0.704295 -2.882594 13.257515 8.505464 2.065847 1.221377 10.117701 5.426832 1.415752 4.251576 -3.959468 1.691458 -2.574125 -3.567885 1.572866 -0.503469 -13.276957 11.809196 -5.878608 -5.471885 11.632645 -11.806478 1.440380 10.157354 -3.344786 2.187539 10.146867 -6.248179 3.192969 11.282305 -10.050739 -47.290963 21.177046 10.059547 10.477539 0.512200 2.369723 18.754839 -3.444289 0.525957 -3.952953 -1.487081 -1.516546 -3.944634 -1.790412 -1.165788 -4.248700 -1.325079 -0.467822 -4.283931 -1.239415 0.259880 -4.183404 -1.037882 1.144871 -35.443723 23.888739 29.390458 -7.191241 0.097489 1.660503 18.731486 13.138353 -4.285629 -14.827868 2.646394 -0.255997 -14.816115 2.997879 -0.508570 -15.072494 2.727907 -1.252428 -15.088670 2.805119 -1.944761 -14.963942 2.810668 -2.798802 
0.000001 9.050311 23.630997 -7.706642 -23.283353 -1.740992 -11.551802 -31.499224 -2.539583 -4.257574 -14.089441 -13.391578 -9.182463 -7.531903 -5.945016 -1.888354 -7.199185 -6.253708 -6.488421 -7.222965 -4.893079 -5.007251 -0.620770 -11.597757 -11.688819 -3.910292 -10.549775 10.031478 -2.939279 -1.773818 -6.023949 17.680454 3.896298 0.000007 0.000001 -0.000002 0.002183 0.000002 0.000005 -0.000001 0.000010 -0.000015 0.000089 -0.000058 0.000013 18.962422 29.229231 -1.987744 -25.801174 -33.372513 -11.500577 0.000001 0.000000 0.000002 0.000088 0.000053 -0.000010 18.958655 -29.232171 1.993166 -25.808703 33.367144 11.500076 0.000000 0.000001 -0.000002 0.005543 9.641627 31.707637 30.720965 14.294441 -39.450005 -4.454625 0.743204 -1.157525 -9.051732 14.924891 17.883471 47.513473 0.483486 -36.813237 11.072092 -9.644302 5.511209 28.231031 22.941492 -17.432355 14.894935 3.345157 1.134003 23.426961 6.870705 -9.032261 13.477354 7.195150 0.827149 16.954283 5.661324 -7.739626 10.531749 11.146792 0.193076 18.369333 24.587274 33.074781 8.629655 12.619678 0.702456 -0.005992 -9.672516 -31.816797 -134.493624 65.595846 175.536039 -3.215464 -0.527220 0.841029 -8.976715 -15.039663 -17.962614 47.655319 -0.429153 36.791272 11.156241 9.709753 -5.558262 28.391174 -22.949352 17.454444 15.002300 -3.370235 -1.139107 23.538594 -6.900557 9.030319 13.574851 -7.247513 -0.827027 17.049687 -5.718838 7.756516 10.608816 -11.227100 -0.186986 18.428807 -24.640288 -33.068002 8.692644 -12.710921 -0.700604 -2.878176 13.352680 8.811819 2.340717 1.037967 10.385797 5.612341 1.225198 4.460806 -3.910473 1.492861 -2.311278 -3.432836 1.376135 -0.198755 -12.871807 11.475104 -5.358932 -4.954350 11.288455 -11.715193 2.000520 9.856299 -3.669470 2.768220 9.795164 -6.591742 3.749466 10.905326 -10.457874 -46.854790 21.357800 10.459958 10.427286 0.508711 2.358596 18.865969 -2.754121 -0.137137 -3.869948 -1.456923 -1.483185 -3.861889 -1.753746 -1.139037 -4.159841 -1.296989 -0.456411 -4.194064 -1.213989 0.254602 -4.095974 -1.015300 1.121099 -34.995280 24.512432 29.465194 -4.822561 0.088414 1.112435 18.661158 13.667276 -3.588174 -14.457784 2.574438 -0.291147 -14.445799 2.912287 -0.534166 -14.692625 2.650400 -1.248303 -14.707204 2.719634 -1.913745 -14.587134 2.724368 -2.735539 
0.000001 9.066594 23.630997 -8.188474 -24.502399 -1.939506 -11.752326 -32.066253 -2.731516 -4.100461 -13.545005 -13.260064 -9.167974 -7.328538 -5.942257 -1.863120 -7.274618 -6.259681 -6.472212 -7.310585 -4.912086 -5.458547 -0.202693 -11.566443 -12.130588 -3.467265 -10.558728 9.484085 -3.574972 -1.708975 -5.860645 18.145910 4.012600 0.000009 0.000000 -0.000001 0.002179 -0.000002 -0.000002 -0.000005 0.000008 -0.000024 0.000089 -0.000057 0.000023 18.962425 29.229238 -1.987737 -25.801174 -33.372513 -11.500584 0.000003 -0.000001 -0.000007 0.000086 0.000052 -0.000006 18.958655 -29.232171 1.993172 -25.808703 33.367141 11.500073 0.000002 -0.000001 -0.000004 0.004872 9.642689 31.711619 30.576066 14.358197 -39.370419 -4.388630 0.731524 -1.140783 -9.168856 14.861414 17.899586 47.506578 0.554785 -36.836327 10.988318 -9.579059 5.464528 28.152554 22.949043 -17.407977 14.787983 3.320198 1.128998 23.356798 6.847101 -9.031218 13.380242 7.142985 0.827273 16.897265 5.614357 -7.740519 10.455011 11.066777 0.199112 18.369148 24.511590 33.067200 8.566943 12.528784 0.704261 -0.006610 -9.673487 -31.820437 -134.441988 65.623078 175.501506 -3.134653 -0.513380 0.820234 -8.909806 -15.079710 -17.957969 47.666456 -0.388214 36.777639 11.205654 9.748103 -5.585862 28.441565 -22.947045 17.465521 15.065288 -3.384938 -1.142009 23.582000 -6.914595 9.030732 13.632058 -7.278239 -0.826856 17.085974 -5.743915 7.755973 10.654051 -11.274210 -0.183310 18.434016 -24.684083 -33.071837 8.729597 -12.764444 -0.699434 -2.873173 13.445688 9.111453 2.610226 0.859218 10.649382 5.796030 1.038979 4.666339 -3.859845 1.298211 -2.050755 -3.297759 1.183830 0.103201 -12.428827 11.116731 -4.826332 -4.405004 10.915178 -11.602272 2.587979 9.527415 -3.958440 3.368600 9.416527 -6.893044 4.318265 10.503654 -10.815897 -46.415305 21.546308 10.868443 10.386829 0.505917 2.349647 18.986609 -2.047595 -0.824506 -3.775231 -1.422306 -1.444888 -3.767306 -1.711788 -1.108608 -4.058244 -1.265027 -0.443463 -4.091381 -1.184866 0.248590 -3.996162 -0.989543 1.093638 -34.574561 25.147023 29.572578 -2.423923 0.056152 0.558256 18.591111 14.223179 -2.926786 -14.074441 2.499452 -0.327395 -14.062017 2.823429 -0.560067 -14.299038 2.569792 -1.243568 -14.311997 2.631267 -1.881310 -14.196744 2.634621 -2.669622 
0.000001 9.066594 23.630997 -8.682535 -25.723739 -2.151993 -11.965756 -32.648741 -2.934497 -3.934568 -12.982409 -13.126106 -9.165341 -7.243366 -5.941123 -1.845417 -7.307964 -6.263119 -6.459683 -7.349152 -4.923123 -5.903918 0.191022 -11.509361 -12.578260 -3.045499 -10.541316 8.911380 -4.194675 -1.626657 -5.803787 18.348537 4.050414 0.000006 -0.000001 0.000000 0.002178 -0.000003 0.000001 -0.000002 0.000005 -0.000017 0.000091 -0.000058 0.000013 18.962429 29.229231 -1.987746 -25.801173 -33.372506 -11.500590 -0.000000 -0.000001 -0.000000 0.000085 0.000052 -0.000010 18.958652 -29.232178 1.993166 -25.808708 33.367144 11.500071 0.000004 0.000002 -0.000002 0.004018 9.644061 31.716745 30.418145 14.458032 -39.280910 -4.298392 0.715585 -1.117863 -9.319398 14.779995 17.920468 47.497832 0.646324 -36.865912 10.880689 -9.495064 5.404653 28.051734 22.958839 -17.376599 14.650443 3.288121 1.122484 23.266771 6.816762 -9.029890 13.255380 7.075904 0.827312 16.824255 5.553964 -7.741667 10.356364 10.963890 0.206722 18.368805 24.414409 33.057497 8.486342 12.411891 0.706432 -0.006071 -9.672630 -31.817224 -134.199570 65.626493 175.295917 -3.081686 -0.504327 0.806596 -8.969567 -15.043954 -17.962214 47.656453 -0.425212 36.789759 11.161524 9.713848 -5.561206 28.396469 -22.950105 17.452655 15.009027 -3.371809 -1.139417 23.542877 -6.901624 9.030218 13.580968 -7.250801 -0.827012 17.053777 -5.718514 7.755550 10.613653 -11.232139 -0.186596 18.433262 -24.645571 -33.068682 8.696593 -12.716643 -0.700485 -2.867678 13.536622 9.404544 2.874483 0.684993 10.908552 5.977863 0.857002 4.868289 -3.807710 1.107436 -1.792581 -3.162741 0.995876 0.402395 -11.950112 10.736248 -4.281176 -3.826213 10.515209 -11.467569 3.200307 9.172959 -4.212701 3.986720 9.013393 -7.153585 4.897885 10.079750 -11.126897 -45.973990 21.743702 11.285960 10.355771 0.503767 2.342767 19.117442 -1.326586 -1.535287 -3.669005 -1.383319 -1.401879 -3.661151 -1.664631 -1.074697 -3.944173 -1.229267 -0.429066 -3.976149 -1.152108 0.241865 -3.884253 -0.960707 1.062657 -34.185452 25.795493 29.714806 -0.046628 0.001303 0.010717 18.527513 14.785449 -2.314902 -13.690739 2.424129 -0.363301 -13.677793 2.734392 -0.585369 -13.905064 2.488821 -1.238372 -13.917283 2.543671 -1.848513 -13.807120 2.544776 -2.603077 
